HIERARCHY
ROOT Hips
{
	OFFSET 0.000000 0.000000 0.000000 
	CHANNELS 6 Xposition Yposition Zposition Yrotation Zrotation Xrotation 
	JOINT Lumbar
	{
		OFFSET 0.000000 0.000000 0.000000 
		CHANNELS 3 Zrotation Xrotation Yrotation
		JOINT Neck
		{
			OFFSET 0.000000 0.445665 0.000000 
			CHANNELS 3 Zrotation Xrotation Yrotation
			End Site
			{
				OFFSET 0.000000 0.227535 0.000000 
			}
		}
		JOINT RightShoulder
		{
			OFFSET 0.019635 0.377685 0.194865 
			CHANNELS 3 Zrotation Xrotation Yrotation
			JOINT RightElbow
			{
				OFFSET 0.000000 -0.243375 0.000000 
				CHANNELS 2 Zrotation Yrotation
				JOINT RightWrist
				{
					OFFSET 0.000000 -0.264825 0.000000 
					CHANNELS 2 Zrotation Xrotation
					End Site
					{
						OFFSET 0.006600 -0.176220 0.000990 
					}
				}
			}
		}
		JOINT LeftShoulder
		{
			OFFSET 0.019635 0.377685 -0.194865 
			CHANNELS 3 Zrotation Xrotation Yrotation
			JOINT LeftElbow
			{
				OFFSET 0.000000 -0.243375 0.000000 
				CHANNELS 2 Zrotation Yrotation
				JOINT LeftWrist
				{
					OFFSET 0.000000 -0.264825 0.000000 
					CHANNELS 2 Zrotation Xrotation
					End Site
					{
						OFFSET 0.006600 -0.176220 -0.000990 
					}
				}
			}
		}
	}
	JOINT RightHip
	{
		OFFSET 0.052140 -0.069960 0.075570 
		CHANNELS 3 Zrotation Xrotation Yrotation
		JOINT RightKnee
		{
			OFFSET 0.000000 -0.402270 0.000000 
			CHANNELS 1 Zrotation
			JOINT RightAnkle
			{
				OFFSET 0.000000 -0.404085 0.000000 
				CHANNELS 3 Zrotation Xrotation Yrotation
				End Site
				{
					OFFSET 0.204105 -0.089430 0.008415 
				}
			}
		}
	}
	JOINT LeftHip
	{
		OFFSET 0.052140 -0.069960 -0.075570 
		CHANNELS 3 Zrotation Xrotation Yrotation
		JOINT LeftKnee
		{
			OFFSET 0.000000 -0.402270 0.000000 
			CHANNELS 1 Zrotation
			JOINT LeftAnkle
			{
				OFFSET 0.000000 -0.404085 0.000000 
				CHANNELS 3 Zrotation Xrotation Yrotation
				End Site
				{
					OFFSET 0.204105 -0.089430 -0.008415 
				}
			}
		}
	}
}
MOTION
Frames: 23
Frame Time: 0.02
0 0.95578 0 173.59068 0 -4.1731 5.06718 5.47232 -0.73672 -37.96991 1.34929 5.32158 29.90179 -73.73277 -72.65147 23.81596 89.28116 -38.07909 -3.86122 46.96437 63.21233 55.98497 20.06063 -114.73906 -54.17646 6.30982 -1.28266 7.66018 -5.86784 -8.04137 1.29434 -3.68094 -8.46468 -1.34497 3.03214 7.86326 -6.679 5.6314 5.11144 9.28382
-3e-05 0.95579 -6e-05 173.68652 0 -4.16183 5.04082 5.4765 -0.68876 -37.81331 1.23988 5.23157 29.92175 -73.59513 -72.28375 23.83962 88.71695 -37.84576 -3.82722 47.33667 63.3855 55.25429 19.88279 -115.59744 -54.38276 6.42829 -1.28442 7.65748 -5.86744 -8.05662 1.29322 -3.70587 -8.5416 -1.33781 3.02507 7.7647 -6.67344 5.61593 5.10962 9.29223
-5e-05 0.95579 -0.00011 173.78223 0 -4.15059 5.01449 5.48048 -0.64115 -37.65706 1.13126 5.14213 29.94315 -73.45818 -71.91652 23.86306 88.15591 -37.61359 -3.79323 47.70743 63.55756 54.52869 19.70551 -116.4495 -54.58735 6.54765 -1.2862 7.65515 -5.86238 -8.07178 1.29204 -3.73029 -8.62299 -1.33059 3.01803 7.66641 -6.66801 5.60058 5.10779 9.30048
-8e-05 0.9558 -0.00017 173.8782 0 -4.13928 4.98813 5.48376 -0.59446 -37.50088 1.02461 5.05381 29.97072 -73.32237 -71.54785 23.88593 87.60133 -37.3838 -3.75892 48.07806 63.7274 53.81878 19.52672 -117.28527 -54.7888 6.67645 -1.28788 7.65514 -5.82528 -8.087 1.29023 -3.75187 -8.7363 -1.32298 3.01104 7.56857 -6.66329 5.58558 5.10586 9.30815
-0.00011 0.9558 -0.00023 173.9726 0 -4.12825 4.96208 5.4908 -0.54289 -37.34454 0.9074 4.95924 29.96585 -73.18016 -71.18702 23.91193 87.01169 -37.14141 -3.72627 48.4522 63.90964 53.02866 19.35352 -118.20808 -55.00895 6.76089 -1.28985 7.64388 -5.94188 -8.1022 1.29133 -3.78722 -8.69636 -1.31731 3.00376 7.46872 -6.65511 5.56877 5.10442 9.31886
-0.00014 0.9558 -0.00029 174.07036 0 -4.11666 4.93529 5.48986 -0.5017 -37.18857 0.8127 4.8782 30.02944 -73.05188 -70.80983 23.93121 86.49736 -36.92591 -3.6902 48.81662 64.06502 52.407 19.17032 -118.94539 -55.18791 6.93524 -1.29138 7.65569 -5.74415 -8.11724 1.28656 -3.79427 -8.96986 -1.30764 2.99714 7.37298 -6.65404 5.55574 5.10196 9.32317
-0.00016 0.95579 -0.00038 174.1792 0 -4.10293 4.90653 5.46625 -0.48901 -37.03039 0.77924 4.83183 30.29218 -72.95784 -70.37671 23.93254 86.17946 -36.78146 -3.64268 49.18036 64.15178 52.26834 18.93873 -119.17642 -55.26536 7.40541 -1.29026 7.74033 -4.54616 -8.13394 1.26231 -3.71315 -10.24202 -1.28522 2.99202 7.28838 -6.675 5.55361 5.09635 9.30874
-0.00019 0.95577 -0.00047 174.29118 0 -4.08872 4.87697 5.43469 -0.48679 -36.87309 0.7686 4.79954 30.62243 -72.87854 -69.92874 23.92701 85.93929 -36.66458 -3.59199 49.53027 64.21056 52.29722 18.70009 -119.21957 -55.29873 7.95886 -1.28895 7.8468 -3.05191 -8.15012 1.23263 -3.60507 -11.80944 -1.25903 2.98762 7.20794 -6.70272 5.5552 5.08976 9.28798
-0.00022 0.95575 -0.00057 174.40071 0 -4.07508 4.84773 5.40712 -0.47989 -36.71717 0.74808 4.76254 30.91562 -72.79515 -69.49377 23.92423 85.67079 -36.537 -3.54401 49.86941 64.27852 52.23653 18.47856 -119.34477 -55.34483 8.44293 -1.28867 7.93729 -1.78008 -8.16518 1.20764 -3.51596 -13.15443 -1.23562 2.9831 7.12558 -6.7258 5.55477 5.08382 9.27078
-0.00025 0.95574 -0.00066 174.51469 0 -4.05993 4.81874 5.37786 -0.47274 -36.5534 0.72557 4.71852 31.23585 -72.70075 -69.03175 23.9229 85.37314 -36.40171 -3.49078 50.2788 64.36108 52.22881 18.20047 -119.48307 -55.42315 9.05702 -1.28444 8.05281 -0.14566 -8.18594 1.17362 -3.39918 -14.86402 -1.20775 2.97772 7.04313 -6.75545 5.55568 5.07703 9.25078
-0.00029 0.95572 -0.00075 174.61997 0 -4.04784 4.78897 5.35034 -0.4685 -36.40665 0.71253 4.69233 31.5156 -72.63277 -68.62348 23.91703 85.15426 -36.28902 -3.44761 50.54068 64.40698 52.15528 18.03588 -119.55058 -55.4221 9.42387 -1.28832 8.12208 0.81369 -8.19477 1.15671 -3.33279 -15.89404 -1.18825 2.97431 6.96212 -6.77308 5.55472 5.07174 9.23503
-0.00036 0.95572 -0.00083 174.7019 0 -4.04414 4.75785 5.32872 -0.47038 -36.30288 0.72093 4.7132 31.66882 -72.63409 -68.35911 23.89944 85.13664 -36.23198 -3.43404 50.38029 64.35525 51.81751 18.20965 -119.45672 -55.22778 9.05457 -1.31529 8.05246 -0.24599 -8.17013 1.19166 -3.41935 -14.89377 -1.19291 2.9762 6.8817 -6.75525 5.54749 5.07117 9.23334
-0.00046 0.95571 -0.00091 174.7747 0 -4.04358 4.72589 5.30927 -0.4747 -36.21698 0.73789 4.75127 31.77859 -72.66146 -68.15091 23.87767 85.1948 -36.19662 -3.43053 50.07495 64.26817 51.41484 18.49401 -119.29856 -54.95201 8.43931 -1.35031 7.93669 -1.97903 -8.13361 1.24334 -3.5563 -13.21549 -1.20613 2.98005 6.80302 -6.7252 5.53828 5.07209 9.236
-0.00054 0.95571 -0.00098 174.85074 0 -4.04172 4.69392 5.28939 -0.47745 -36.12535 0.75035 4.78067 31.90715 -72.67695 -67.92228 23.85836 85.21682 -36.15146 -3.42172 49.8485 64.19942 51.06987 18.71192 -119.17991 -54.70399 7.95887 -1.38118 7.84582 -3.35073 -8.103 1.28529 -3.66535 -11.90009 -1.21532 2.98301 6.72506 -6.70118 5.53008 5.07212 9.2362
-0.00062 0.95571 -0.00107 174.93073 0 -4.03933 4.66349 5.26693 -0.48247 -36.0235 0.76619 4.81427 32.04229 -72.69323 -67.67144 23.83643 85.24995 -36.1075 -3.41583 49.56827 64.12026 50.61424 18.99602 -119.01857 -54.4947 7.38585 -1.41405 7.7389 -4.94903 -8.07029 1.33627 -3.79418 -10.36049 -1.22489 2.98603 6.64083 -6.67544 5.52155 5.07301 9.23826
-0.00072 0.95571 -0.00113 175.00025 0 -4.03878 4.62976 5.25044 -0.48324 -35.94739 0.7767 4.84289 32.15231 -72.71372 -67.48064 23.8191 85.27541 -36.06526 -3.40634 49.36373 64.0546 50.36828 19.17102 -118.92417 -54.18455 6.94393 -1.44475 7.65443 -6.23495 -8.03903 1.3722 -3.89461 -9.12719 -1.23583 2.98935 6.57009 -6.65023 5.5132 5.07248 9.23749
-0.00083 0.95573 -0.00113 175.04324 0 -4.04274 4.58635 5.25009 -0.47155 -35.9361 0.77054 4.8549 32.20501 -72.74053 -67.43991 23.81491 85.27309 -36.02717 -3.38408 49.42237 64.03607 50.74506 18.99644 -119.11177 -53.62877 6.94343 -1.46684 7.6407 -6.5343 -8.01562 1.36507 -3.90037 -8.86459 -1.24784 2.99325 6.53541 -6.62995 5.50564 5.06764 9.22846
-0.00095 0.95576 -0.00111 175.07592 0 -4.04842 4.53983 5.25565 -0.45548 -35.95044 0.7586 4.86104 32.23333 -72.77039 -67.45811 23.8156 85.2574 -35.98902 -3.35788 49.55931 64.03223 51.32963 18.71177 -119.35622 -52.97251 7.07965 -1.48659 7.65134 -6.49252 -7.99392 1.34192 -3.8766 -8.93716 -1.2611 2.99734 6.51439 -6.6105 5.49836 5.06134 9.21637
-0.00107 0.95578 -0.00109 175.11323 0 -4.05319 4.49523 5.25844 -0.44144 -35.95425 0.74906 4.86887 32.2715 -72.79806 -67.45071 23.81449 85.24015 -35.94772 -3.33382 49.64749 64.02102 51.79917 18.49207 -119.52029 -52.35346 7.1399 -1.50781 7.65261 -6.57838 -7.9708 1.32418 -3.86917 -8.88502 -1.27421 3.0012 6.48755 -6.59033 5.49102 5.05573 9.20532
-0.00117 0.95581 -0.00108 175.1506 0 -4.05859 4.44835 5.26173 -0.42732 -35.95394 0.74072 4.88125 32.31332 -72.83001 -67.44027 23.8116 85.25956 -35.92073 -3.30891 49.78398 64.01154 52.35107 18.2151 -119.90605 -51.76557 7.24886 -1.52755 7.6458 -6.79248 -7.9499 1.31415 -3.8515 -8.70371 -1.28576 3.00575 6.45901 -6.5712 5.48328 5.05006 9.19589
-0.00131 0.95584 -0.00106 175.18535 0 -4.06307 4.40561 5.26527 -0.41233 -35.96813 0.72849 4.88276 32.34237 -72.85349 -67.44944 23.81345 85.19627 -35.86348 -3.28439 49.84314 64.00233 52.78466 18.0274 -119.85223 -51.09206 7.29351 -1.54978 7.66129 -6.66313 -7.925 1.28497 -3.84707 -8.86618 -1.30084 3.00889 6.43739 -6.55022 5.47651 5.04414 9.18232
-0.00154 0.95585 -0.00101 175.21687 0 -4.06447 4.37404 5.26879 -0.39567 -36.01507 0.70599 4.85371 32.34168 -72.85199 -67.49796 23.82884 84.92624 -35.72376 -3.26454 49.64567 63.99123 52.81333 18.13402 -118.50197 -50.18887 7.11508 -1.57881 7.74057 -5.5485 -7.8884 1.19878 -3.88991 -10.01852 -1.32468 3.00799 6.43029 -6.52442 5.47192 5.03806 9.15788
-0.00181 0.95587 -0.00096 175.24587 0 -4.06489 4.34693 5.27218 -0.37836 -36.07566 0.67992 4.81418 32.32927 -72.84175 -67.56388 23.84856 84.56989 -35.5533 -3.24469 49.37241 63.97988 52.72045 18.33015 -116.71905 -49.20646 6.87046 -1.61044 7.84026 -4.11731 -7.84791 1.0952 -3.9462 -11.48753 -1.3521 3.00568 6.42987 -6.49674 5.46838 5.03179 9.12947
